PathFileType	4	(X/Y/Z)	 s02c0102.trc
DataRate	CameraRate	NumFrames	NumMarkers	Units	OrigDataRate	OrigDataStartFrame	OrigNumFrames
200	200	4	51	mm	200	1001	2000
Frame#	Time	racr			lacr			c7			jug			rlel			rdr			llel			ldr			s2			lic			ric			lasi			rasi			rpsi			lpsi			rgt			lgt			rth1			rth2			rth3			rth4			rlfc			rmfc			rsh1			rsh2			rsh3			rsh4			rlmal			rmmal			rcal			rtoe			rmt5			rmt1			lth1			lth2			lth4			lth3			llfc			lmfc			lsh1			lsh2			lsh3			lsh4			llmal			lmmal			lcal			ltoe			lmt5			SBIKE			LBIKE			RBIKE			
		X1	Y1	Z1	X2	Y2	Z2	X3	Y3	Z3	X4	Y4	Z4	X5	Y5	Z5	X6	Y6	Z6	X7	Y7	Z7	X8	Y8	Z8	X9	Y9	Z9	X10	Y10	Z10	X11	Y11	Z11	X12	Y12	Z12	X13	Y13	Z13	X14	Y14	Z14	X15	Y15	Z15	X16	Y16	Z16	X17	Y17	Z17	X18	Y18	Z18	X19	Y19	Z19	X20	Y20	Z20	X21	Y21	Z21	X22	Y22	Z22	X23	Y23	Z23	X24	Y24	Z24	X25	Y25	Z25	X26	Y26	Z26	X27	Y27	Z27	X28	Y28	Z28	X29	Y29	Z29	X30	Y30	Z30	X31	Y31	Z31	X32	Y32	Z32	X33	Y33	Z33	X34	Y34	Z34	X35	Y35	Z35	X36	Y36	Z36	X37	Y37	Z37	X38	Y38	Z38	X39	Y39	Z39	X40	Y40	Z40	X41	Y41	Z41	X42	Y42	Z42	X43	Y43	Z43	X44	Y44	Z44	X45	Y45	Z45	X46	Y46	Z46	X47	Y47	Z47	X48	Y48	Z48	X49	Y49	Z49	X50	Y50	Z50	X51	Y51	Z51	
1001	5.0050	557.504361	1223.416556	-131.907635	565.315351	1216.278996	-461.855027	557.381413	1244.823990	-298.360293	485.591709	1117.700595	-295.696679	562.806562	977.059906	-31.684803	722.676313	854.306222	-112.819049	528.926333	964.698194	-587.812248	707.024848	848.831206	-505.241835	25.368788	1102.002569	-328.599394	166.558941	1097.615660	-462.916156	144.724079	1108.613617	-176.482443	201.831586	1065.033400	-429.851829	198.200093	1078.689243	-200.175548	54.287415	1153.382296	-284.265714	64.078085	1165.015888	-366.590174	120.300467	1026.512608	-139.648633	118.359037	1007.244861	-498.803519	204.327902	977.178827	-127.804280	285.663462	943.074092	-128.900319	338.923202	880.180178	-104.626190	306.783473	966.890133	-149.227610	432.953577	765.777998	-137.786314	432.547851	750.764206	-246.478280	430.831809	651.824612	-121.318640	434.053544	564.267633	-141.749288	395.969754	486.671973	-140.464227	446.073425	565.510897	-179.495513	356.470576	376.414617	-148.488376	367.068463	398.201298	-228.781450	281.529299	327.984043	-189.821576	568.973104	312.847814	-185.592524	458.576793	301.331096	-126.049686	486.355171	319.219093	-232.135096	242.673917	937.572862	-500.592906	322.110302	902.612416	-494.128644	340.573687	926.015385	-472.780090	374.275279	830.252637	-497.447998	436.573177	754.695182	-475.566045	430.386921	720.684124	-370.958912	374.273014	673.087808	-497.976406	323.009097	604.986099	-484.300149	241.297510	566.595213	-492.250424	335.822073	591.378671	-447.031796	148.284121	510.056210	-485.928050	160.885484	495.309477	-408.504407	70.411982	521.640061	-445.414202	234.601358	286.923905	-433.424931	153.111207	352.708347	-500.343296	-162.470810	860.132135	-310.397624	37.216183	86.015681	-514.236138	33.942612	82.999067	-114.105689	
1002	5.0100	558.812690	1220.813032	-132.911619	565.499528	1214.794833	-463.116631	558.294659	1242.783560	-299.754962	485.690689	1116.125229	-297.233780	564.850187	976.008929	-30.825150	723.514365	853.461817	-112.995875	529.930842	963.322613	-589.158562	707.349282	848.541268	-505.132748	25.856021	1101.047099	-327.966770	166.613480	1096.818192	-462.685466	146.130477	1107.271805	-175.714857	202.150772	1064.495246	-429.541544	199.476171	1077.282261	-199.401900	55.106015	1151.504924	-283.313412	64.844589	1162.938959	-365.865376	120.851815	1024.519598	-138.427040	119.737971	1006.436297	-498.397907	205.815570	974.308831	-125.708086	285.926631	937.469868	-127.695221	337.866410	873.434898	-104.526439	307.472230	961.069433	-148.891670	428.803085	757.265522	-137.870725	426.733403	740.253238	-244.801420	426.786846	643.277861	-120.907964	431.258483	555.815009	-140.820560	393.894543	477.680531	-139.808134	443.377190	557.075988	-178.677160	355.753644	367.405585	-147.782252	364.986647	383.709488	-228.338973	280.372202	320.150283	-189.109059	567.572365	300.446071	-185.730072	457.203082	290.561352	-125.980538	484.954050	308.430380	-231.904532	244.625869	939.229362	-500.909607	324.960006	906.377847	-494.750312	342.870469	930.217675	-473.427097	378.870460	835.060891	-497.942067	442.299681	761.136700	-475.671861	436.086476	727.011345	-371.003973	379.696242	680.318356	-497.856452	327.364825	612.963844	-484.016263	245.095171	575.619171	-491.831607	340.079024	599.229606	-446.797226	151.282902	520.805137	-485.375168	164.458194	506.080207	-407.722446	72.900578	532.375254	-444.457380	236.874972	297.318679	-433.270106	155.596642	363.587539	-500.106467	-162.495049	860.049010	-310.502782	37.205555	86.074997	-514.234067	33.953278	83.000026	-114.089647	
1003	5.0150	560.102736	1218.698171	-133.985706	565.647704	1213.416318	-464.345420	559.200677	1240.954475	-301.129792	485.731832	1114.801831	-298.545784	566.949422	975.020347	-30.494912	724.383570	852.711779	-112.841662	530.351353	962.176536	-590.276016	707.591302	848.407246	-505.039933	26.519671	1100.246177	-326.932465	166.621772	1096.487429	-462.393469	147.613598	1106.333964	-174.915419	202.407313	1064.434169	-429.129774	200.805460	1076.268441	-198.761284	55.926602	1150.165329	-282.288274	64.168859	1162.980663	-364.589377	122.113675	1022.522874	-138.016347	121.001537	1006.153948	-497.926257	207.414980	970.921216	-125.469782	286.507476	932.176548	-127.258843	336.814343	866.766659	-103.970033	308.673417	955.247310	-148.876396	424.719120	748.658073	-137.949946	422.600211	731.320768	-244.879965	422.113841	634.868232	-120.761998	427.389762	547.745775	-139.862968	391.087457	469.081524	-138.948570	440.026897	548.842199	-177.804224	354.581976	358.636598	-146.986656	363.562256	375.127547	-227.427517	278.728520	312.798204	-188.299614	565.561392	288.065213	-185.917057	455.231991	279.917853	-125.873925	483.012831	297.461878	-231.797052	246.447077	941.509711	-501.136762	327.472669	910.543613	-495.333046	344.963927	934.939867	-473.832714	382.914879	840.417637	-498.283833	447.862503	768.121088	-475.825236	441.711636	734.154988	-370.972486	384.718926	687.995070	-497.622896	331.669421	621.368797	-483.741114	249.058865	584.853824	-491.361612	344.076135	607.311995	-446.200851	154.488327	531.429086	-484.786693	167.447476	516.732552	-407.249534	75.791288	542.851205	-443.658954	239.843604	308.098604	-433.241909	158.709092	374.441199	-499.941743	-162.388701	860.243815	-309.902953	37.195887	86.115892	-514.210367	33.964376	83.013628	-114.065210	
1004	5.0200	561.354545	1216.941551	-135.192373	565.731518	1212.191122	-465.695114	560.143068	1239.487841	-302.529810	485.283926	1114.161381	-299.876933	568.898519	974.285233	-30.399201	725.164329	851.942929	-112.633189	530.444719	961.215906	-591.174580	707.689810	848.371665	-504.871997	27.224710	1099.934374	-325.636384	166.574121	1096.722294	-461.994754	149.162669	1105.925394	-174.141854	202.620123	1064.852542	-428.828238	202.095146	1075.651963	-198.193106	56.784408	1149.690278	-281.158196	66.330524	1162.305372	-364.233489	123.747866	1021.053030	-137.714519	122.095665	1006.572518	-497.447512	209.053075	967.656660	-125.255282	287.185056	927.036566	-126.902144	335.998467	860.185481	-103.644771	309.534596	949.370294	-148.788523	419.749714	740.459346	-137.745268	417.717635	722.791637	-244.469377	416.898711	627.170759	-120.220053	423.134236	539.984730	-139.125963	387.569164	461.083654	-138.006314	436.034746	541.223655	-176.893374	353.022617	350.311267	-146.065937	361.713743	366.913691	-226.383760	276.616547	305.833079	-187.302798	562.890588	275.575069	-186.121650	452.640287	269.392202	-125.735644	480.517792	286.775685	-231.562099	248.067739	944.409322	-501.166081	329.775386	915.358642	-495.764609	346.890347	940.094207	-474.573893	386.677657	846.173530	-498.631994	452.881063	775.321798	-475.405607	447.107530	741.697679	-370.797333	389.684363	695.972302	-497.351520	335.962062	629.843758	-483.296635	253.018566	594.214464	-490.833584	348.307269	615.562641	-445.812844	157.867470	541.990456	-484.196509	170.286223	527.075118	-406.764652	78.868429	553.241218	-443.241727	243.709164	318.881496	-433.131754	162.467463	385.347709	-499.800282	-162.326099	860.231018	-310.167028	37.224993	86.166780	-514.220267	33.965715	83.025171	-114.056322	
